<svg width="50" height="50" viewBox="0 0 50 50" fill="none" xmlns="http://www.w3.org/2000/svg">
<g opacity="0.5" clip-path="url(#clip0)">
<path d="M18.6534 45.5118C16.4913 45.5118 14.2658 45.3367 12.0269 44.9857C8.08369 44.367 4.09201 42.3044 2.96248 41.6868L0 40.0671L3.20738 39.0123C6.71346 37.8595 8.84625 37.1443 11.4864 36.0243C8.84281 34.7441 6.80539 32.4412 5.82464 29.4642L5.07849 27.199L5.69036 27.2925C5.11015 26.7077 4.652 26.1141 4.29686 25.5744C3.03382 23.6559 2.3651 21.3118 2.50739 19.303L2.64777 17.3259L3.83147 17.7844C3.33212 16.8414 2.97126 15.8343 2.75916 14.7788C2.24227 12.2047 2.67486 9.46991 3.97757 7.07849L5.00868 5.18564L6.38769 6.84198C10.749 12.0811 16.2731 15.1889 22.8293 16.0987C22.5616 14.2528 22.7622 12.4713 23.4263 10.8745C24.1996 9.0152 25.5752 7.43859 27.4032 6.31479C29.4333 5.067 31.8953 4.46238 34.3356 4.61229C36.9246 4.77137 39.2752 5.74144 41.1421 7.41952C42.0538 7.18263 42.7256 6.92971 43.6335 6.58792C44.1797 6.38231 44.7992 6.14885 45.5744 5.88182L48.4308 4.89763L46.5681 10.2176C46.6909 10.2073 46.8176 10.1985 46.95 10.1928L50.0002 10.0547L48.1974 12.5186C48.094 12.6597 48.0677 12.6998 48.031 12.7551C47.8857 12.9741 47.7049 13.2464 45.2303 16.5507C44.6108 17.3781 44.3014 18.4558 44.359 19.5857C44.5784 23.8795 44.0516 27.7644 42.7923 31.132C41.6014 34.318 39.7559 37.0516 37.3076 39.2569C34.278 41.9851 30.4148 43.8532 25.825 44.8084C23.5736 45.2768 21.1558 45.5118 18.6534 45.5118V45.5118Z" fill="#FF9E9E"/>
</g>
<defs>
<clipPath id="clip0">
<rect width="50" height="49.9998" fill="white"/>
</clipPath>
</defs>
</svg>
